<svg id="Component_2_1" data-name="Component 2 – 1" xmlns="http://www.w3.org/2000/svg" xmlns:xlink="http://www.w3.org/1999/xlink" width="129.425" height="108.041" viewBox="0 0 129.425 108.041">
  <defs>
    <filter id="Union_1" x="80.163" y="38.91" width="49.262" height="38.791" filterUnits="userSpaceOnUse">
      <feOffset dx="4" dy="9" input="SourceAlpha"/>
      <feGaussianBlur result="blur"/>
      <feFlood flood-color="#fff" flood-opacity="0.161"/>
      <feComposite operator="in" in2="blur"/>
      <feComposite in="SourceGraphic"/>
    </filter>
  </defs>
  <path id="Subtraction_1" data-name="Subtraction 1" d="M25.48,50.961A25.488,25.488,0,0,1,15.562,2,25.487,25.487,0,0,1,35.4,48.959,25.321,25.321,0,0,1,25.48,50.961ZM14.269,15.628a10.192,10.192,0,1,0,10.1,11.551h3.012a10.194,10.194,0,1,0-.114-3.4H24.257A10.218,10.218,0,0,0,14.269,15.628Z" transform="translate(28.54 28.54)" fill="#fff"/>
  <g transform="matrix(1, 0, 0, 1, 0, 0)" filter="url(#Union_1)">
    <path id="Union_1-2" data-name="Union 1" d="M11.569,16.044c.289-5.242.1-10.187.024-11.685-1.426.128-2.413.22-2.413.22L8.9.2a51.75,51.75,0,0,0,7.379.5A55.474,55.474,0,0,0,23.8,0l-.3,3.653c-.019-.044-.3-.184-3.375.012-.881.056-1.992.14-3.165.235H17s-.817,4.054-1.474,8.8l13.891-1.5V5.987h2.256V18.155L41.351,5.891l2.016.576,1.9,15.385-2.232.264L41.446,9.443,31.438,22.09l-2.016-.7V13.3l-14.165,1.51c-.087.719-.167,1.442-.237,2.158s-.131,1.421-.183,2.114c1.371.15,3.2.319,4.518.319,2.378,0,3.085-.549,3.085-.549a8.825,8.825,0,0,0-.2,1.723,8.066,8.066,0,0,0,.2,1.675,18.709,18.709,0,0,0-3.162-.163c-1.369,0-3.265.054-4.628.1-.05,1.076-.081,2.076-.1,2.961,2.439.22,6.561.58,8.97.734,3.072.2,3.356.056,3.375.012l.3,3.653a55.474,55.474,0,0,0-7.524-.7,49.4,49.4,0,0,0-5.657.292l-3.631.657S11.222,22.329,11.569,16.044Zm15.326,9.833a.011.011,0,0,1,0,.012ZM2.932,18.822a22.511,22.511,0,0,0-.913-4.893l4.834-1.191a50.441,50.441,0,0,0,0,5.255,37.6,37.6,0,0,0,.638,4.764l-4.842,1.4A28.459,28.459,0,0,0,2.932,18.822Zm.716-7.682C2.719,11.026,1.726,9.7,1.726,9.7S0,7.557,0,6.476c0-.784,1.148-.813,1.726-1.1S2.973,4.226,3.934,4.226,5.57,5.375,5.57,5.375a4.066,4.066,0,0,1,.949,2.3,5.7,5.7,0,0,1-1.076,2.483,2.627,2.627,0,0,1-1.656.992A1.122,1.122,0,0,1,3.648,11.14ZM23.5,3.653a.011.011,0,0,1,0,.012Z" transform="translate(80.16 38.91)" fill="#fff"/>
  </g>
  <g id="Ellipse_13" data-name="Ellipse 13" transform="translate(108.041 39.546) rotate(120)" fill="none" stroke="#ff8ac8" stroke-linecap="round" stroke-width="9" stroke-dasharray="31 55">
    <circle cx="39.546" cy="39.546" r="39.546" stroke="none"/>
    <circle cx="39.546" cy="39.546" r="35.046" fill="none"/>
  </g>
</svg>
